<svg width="94" height="72" fill="none" xmlns="http://www.w3.org/2000/svg"><g clip-path="url(#clip0_0_138)" fill-rule="evenodd" clip-rule="evenodd"><path d="M93.527 25.11a3.724 3.724 0 00-2.226-1.81L13.632.176A3.733 3.733 0 0012.568.02 3.767 3.767 0 008.98 2.713L.154 32.61A3.766 3.766 0 002.4 37.184V68.2c0 2.073 1.68 3.76 3.743 3.76h81.01c2.064 0 3.743-1.687 3.743-3.76V37.9l2.93-9.929a3.746 3.746 0 00-.298-2.862zm-5.363 43.091c0 .56-.454 1.017-1.012 1.017h-20.85v-1.636c0-.757-.61-1.372-1.365-1.372a1.37 1.37 0 00-1.366 1.372v1.636H6.142A1.015 1.015 0 015.13 68.2V38.012l12.627 3.76-.884.887-6.175-.68-1.278 1.04 4.913 2.19-1.717 1.724-1.83-.18a.102.102 0 00-.084.032l-.64.644a.104.104 0 00-.007.146c.01.01.021.02.034.024l1.593.729a1.049 1.049 0 001.024 1.028l.727 1.598a.103.103 0 00.166.031l.64-.647a.105.105 0 00.033-.084l-.18-1.835 1.718-1.725 2.181 4.934 1.036-1.284-.677-6.2 1.686-1.694 2.837.845v.75c0 .252.204.457.455.457h3.599l10.35 3.08H23.328a.456.456 0 00-.455.458v2.91c0 .253.204.458.455.458h26.799l13.487 4.015a1.377 1.377 0 00-.043.335v5.912c0 .757.611 1.371 1.366 1.371.754 0 1.365-.614 1.365-1.371v-5.447l14.046 4.182c.347.103.705.155 1.065.155A3.768 3.768 0 0085 57.87l3.163-10.715V68.2zm3.043-41.008l-8.824 29.896a1.019 1.019 0 01-.97.729 1.01 1.01 0 01-.288-.043l-19.99-5.95.463-1.57a1.365 1.365 0 10-2.619-.78l-.463 1.57-55.06-16.392a1.018 1.018 0 01-.683-1.263l8.825-29.897a1.02 1.02 0 01.97-.729c.096 0 .194.015.288.043l55.06 16.392-.571 1.936a1.372 1.372 0 001.31 1.762c.589 0 1.132-.386 1.308-.982l.572-1.937 19.99 5.951c.259.077.473.251.602.49.129.238.157.513.08.773z" fill="#ECB84C"/><path d="M64.023 37.215a1.365 1.365 0 00-1.697.925l-1.673 5.668a1.373 1.373 0 001.31 1.762c.589 0 1.133-.386 1.309-.983l1.673-5.668a1.373 1.373 0 00-.922-1.704zm3.347-11.337a1.365 1.365 0 00-1.698.926l-1.673 5.668a1.372 1.372 0 001.31 1.761c.589 0 1.133-.386 1.309-.982l1.673-5.668a1.373 1.373 0 00-.922-1.705zM13.358 15.053l1.321 1.153a1.048 1.048 0 00.69 1.277l.246 1.74a.103.103 0 00.15.078l.798-.439a.104.104 0 00.054-.07l.347-1.811 2.136-1.164.694 5.354 1.356-.936 1.107-6.139 2.346-1.278c.507-.276.695-.913.42-1.423a1.043 1.043 0 00-1.417-.422l-2.346 1.279-5.728-2.414-1.52.632 4.091 3.502-2.133 1.164-1.705-.696a.102.102 0 00-.089.007l-.796.434a.105.105 0 00-.022.172zm42.465 27.031L8.743 28.068a.456.456 0 00-.567.308l-.823 2.791a.46.46 0 00.307.568l47.08 14.017a.447.447 0 00.347-.037.457.457 0 00.22-.272l.823-2.79a.458.458 0 00-.307-.569zm1.955-6.622L10.697 21.446a.454.454 0 00-.566.308l-.824 2.792a.457.457 0 00.307.568L56.695 39.13a.448.448 0 00.347-.037.458.458 0 00.219-.272l.824-2.79a.457.457 0 00-.307-.569zm1.954-6.622L26.057 18.817a.455.455 0 00-.566.308l-.824 2.791a.46.46 0 00.307.568L58.65 32.508a.448.448 0 00.346-.036.457.457 0 00.22-.272l.823-2.791a.458.458 0 00-.307-.568zm1.001-2.935a.455.455 0 00.437-.327l.824-2.79a.459.459 0 00-.307-.57L28.01 12.195a.455.455 0 00-.566.308l-.824 2.791a.458.458 0 00.307.568l33.676 10.025c.043.013.087.02.13.02zm-2.28 35.491H9.347a.456.456 0 00-.455.457v2.91c0 .253.204.458.455.458h49.106a.456.456 0 00.455-.457v-2.911a.456.456 0 00-.455-.457z" fill="#ECB84C"/><path d="M58.453 54.49l-49.106-.001a.454.454 0 00-.455.457v2.911c0 .252.204.457.455.457h49.106a.456.456 0 00.455-.457v-2.91a.456.456 0 00-.455-.458z" fill="#ECB04C"/></g><defs><clipPath id="clip0_0_138"><path fill="#fff" d="M0 0h94v72H0z"/></clipPath></defs></svg>